<?xml version="1.0" encoding="utf-8"?>
<!-- Generator: Adobe Illustrator 22.1.0, SVG Export Plug-In . SVG Version: 6.00 Build 0)  -->
<svg version="1.1" id="图层_1" xmlns="http://www.w3.org/2000/svg" xmlns:xlink="http://www.w3.org/1999/xlink" x="0px" y="0px"
	 viewBox="0 0 354 359" style="enable-background:new 0 0 354 359;" xml:space="preserve">
<style type="text/css">
	.st0{opacity:0.2;}
	.st1{fill:#999999;}
	.st2{opacity:0.4;}
	.st3{fill:#9E005D;}
	.st4{opacity:0.3;}
	.st5{fill:#93278F;}
	.st6{fill:#00A99D;}
	.st7{fill:#FF7BAC;}
	.st8{fill:#D9E021;}
	.st9{fill:#0000FF;}
	.st10{fill:#009245;}
	.st11{fill:#8CC63F;}
	.st12{fill:#C1272D;}
	.st13{fill:#29ABE2;}
	.st14{fill:#FBB03B;}
	.st15{fill:#FFFFFF;}
	.st16{font-family:'AdobeSongStd-Light-GBpc-EUC-H';}
	.st17{font-size:107.3176px;}
</style>
<g class="st0">
	<ellipse class="st1" cx="177" cy="182.5" rx="158.5" ry="157"/>
	<path d="M177,26c42.2,0,81.9,16.3,111.7,45.8c29.8,29.6,46.3,68.9,46.3,110.7s-16.4,81.1-46.3,110.7C258.9,322.7,219.2,339,177,339
		s-81.9-16.3-111.7-45.8C35.4,263.6,19,224.3,19,182.5s16.4-81.1,46.3-110.7C95.1,42.3,134.8,26,177,26 M177,25
		C89.2,25,18,95.5,18,182.5S89.2,340,177,340s159-70.5,159-157.5S264.8,25,177,25L177,25z"/>
</g>
<g class="st2">
	<circle class="st3" cx="270" cy="168" r="39.5"/>
	<path d="M270,129c21.5,0,39,17.5,39,39s-17.5,39-39,39s-39-17.5-39-39S248.5,129,270,129 M270,128c-22.1,0-40,17.9-40,40
		s17.9,40,40,40s40-17.9,40-40S292.1,128,270,128L270,128z"/>
</g>
<g class="st4">
	<circle class="st5" cx="205" cy="261" r="39.5"/>
	<path d="M205,222c21.5,0,39,17.5,39,39s-17.5,39-39,39s-39-17.5-39-39S183.5,222,205,222 M205,221c-22.1,0-40,17.9-40,40
		s17.9,40,40,40s40-17.9,40-40S227.1,221,205,221L205,221z"/>
</g>
<g class="st4">
	<circle class="st6" cx="101" cy="251" r="39.5"/>
	<path d="M101,212c21.5,0,39,17.5,39,39s-17.5,39-39,39s-39-17.5-39-39S79.5,212,101,212 M101,211c-22.1,0-40,17.9-40,40
		s17.9,40,40,40s40-17.9,40-40S123.1,211,101,211L101,211z"/>
</g>
<g class="st4">
	<circle class="st7" cx="67" cy="156" r="39.5"/>
	<path d="M67,117c21.5,0,39,17.5,39,39s-17.5,39-39,39s-39-17.5-39-39S45.5,117,67,117 M67,116c-22.1,0-40,17.9-40,40s17.9,40,40,40
		s40-17.9,40-40S89.1,116,67,116L67,116z"/>
</g>
<g class="st4">
	<circle class="st8" cx="122" cy="90" r="39.5"/>
	<path d="M122,51c21.5,0,39,17.5,39,39s-17.5,39-39,39s-39-17.5-39-39S100.5,51,122,51 M122,50c-22.1,0-40,17.9-40,40s17.9,40,40,40
		s40-17.9,40-40S144.1,50,122,50L122,50z"/>
</g>
<g class="st2">
	<circle class="st9" cx="210" cy="79" r="39.5"/>
	<path d="M210,40c21.5,0,39,17.5,39,39s-17.5,39-39,39s-39-17.5-39-39S188.5,40,210,40 M210,39c-22.1,0-40,17.9-40,40s17.9,40,40,40
		s40-17.9,40-40S232.1,39,210,39L210,39z"/>
</g>
<g>
	<circle class="st10" cx="144" cy="135" r="39.5"/>
	<path d="M144,96c21.5,0,39,17.5,39,39s-17.5,39-39,39s-39-17.5-39-39S122.5,96,144,96 M144,95c-22.1,0-40,17.9-40,40s17.9,40,40,40
		s40-17.9,40-40S166.1,95,144,95L144,95z"/>
</g>
<g>
	<circle class="st11" cx="200" cy="116" r="39.5"/>
	<path d="M200,77c21.5,0,39,17.5,39,39s-17.5,39-39,39s-39-17.5-39-39S178.5,77,200,77 M200,76c-22.1,0-40,17.9-40,40s17.9,40,40,40
		s40-17.9,40-40S222.1,76,200,76L200,76z"/>
</g>
<g class="st4">
	<circle class="st12" cx="168" cy="234" r="39.5"/>
	<path d="M168,195c21.5,0,39,17.5,39,39s-17.5,39-39,39s-39-17.5-39-39S146.5,195,168,195 M168,194c-22.1,0-40,17.9-40,40
		s17.9,40,40,40s40-17.9,40-40S190.1,194,168,194L168,194z"/>
</g>
<g>
	<circle class="st13" cx="154" cy="178" r="39.5"/>
	<path d="M154,139c21.5,0,39,17.5,39,39s-17.5,39-39,39s-39-17.5-39-39S132.5,139,154,139 M154,138c-22.1,0-40,17.9-40,40
		s17.9,40,40,40s40-17.9,40-40S176.1,138,154,138L154,138z"/>
</g>
<g>
	<circle class="st14" cx="208" cy="170" r="39.5"/>
	<path d="M208,131c21.5,0,39,17.5,39,39s-17.5,39-39,39s-39-17.5-39-39S186.5,131,208,131 M208,130c-22.1,0-40,17.9-40,40
		s17.9,40,40,40s40-17.9,40-40S230.1,130,208,130L208,130z"/>
</g>
<g>
	<circle class="st8" cx="178" cy="138" r="39.5"/>
	<path d="M178,99c21.5,0,39,17.5,39,39s-17.5,39-39,39s-39-17.5-39-39S156.5,99,178,99 M178,98c-22.1,0-40,17.9-40,40s17.9,40,40,40
		s40-17.9,40-40S200.1,98,178,98L178,98z"/>
</g>
<text transform="matrix(0.8324 0 0 1 62.2656 339.7417)" class="st15 st16 st17">PSAIA</text>
</svg>
